<svg xmlns="http://www.w3.org/2000/svg" version="1.1" xmlns:xlink="http://www.w3.org/1999/xlink" width="1000" height="1000"><metadata><rdf:RDF xmlns:rdf="http://www.w3.org/1999/02/22-rdf-syntax-ns#" xmlns:dc="http://purl.org/dc/elements/1.1/"><rdf:Description><dc:creator>RealFaviconGenerator</dc:creator><dc:source>https://realfavicongenerator.net</dc:source></rdf:Description></rdf:RDF></metadata><g clip-path="url(#SvgjsClipPath1035)"><rect width="1000" height="1000" fill="#ffffff"></rect><g transform="matrix(0.7,0,0,0.7,150,150)"><svg xmlns="http://www.w3.org/2000/svg" version="1.1" xmlns:xlink="http://www.w3.org/1999/xlink" width="1000" height="1000"><metadata><rdf:rdf xmlns:rdf="http://www.w3.org/1999/02/22-rdf-syntax-ns#" xmlns:dc="http://purl.org/dc/elements/1.1/"><rdf:description><dc:creator>RealFaviconGenerator</dc:creator><dc:source>https://realfavicongenerator.net</dc:source></rdf:description></rdf:rdf></metadata><g clip-path="url(#SvgjsClipPath1056)"><rect width="1000" height="1000" fill="#ffffff"></rect><g transform="matrix(1.171875,0,0,1.171875,200,200)"><svg xmlns="http://www.w3.org/2000/svg" xmlns:xlink="http://www.w3.org/1999/xlink" id="Layer_2_00000114076098816206080180000002930242063067671220_" enable-background="new 0 0 512 512" viewBox="0 0 512 512" width="512" height="512"><linearGradient id="_50_00000083066726120992294620000003649070026626262717_" gradientTransform="matrix(1 0 0 -1 0 513.91)" gradientUnits="userSpaceOnUse" x1="64.04" x2="437.96" y1="439.875" y2="65.955"><stop offset="0" stop-color="#3b82f6"></stop><stop offset="1" stop-color="#1e3a8a"></stop></linearGradient><g id="Icon"><path id="_50" d="m426.7 74c-47.1 0-85.3 38.2-85.3 85.3s38.2 85.3 85.3 85.3 85.3-38.2 85.3-85.3-38.2-85.3-85.3-85.3zm47 85.6-24.6 24.6c-3.3 3.3-8.7 3.3-12.1 0-3.3-3.3-3.3-8.7 0-12.1l10-10h-52.8v27.4c0 4.7-3.8 8.5-8.5 8.5s-8.5-3.8-8.5-8.5v-35.9c0-4.7 3.8-8.5 8.5-8.5h61.3l-10-10c-3.3-3.3-3.3-8.7 0-12.1s8.7-3.3 12.1 0l24.6 24.6c3.3 3.3 3.3 8.7 0 12zm-153.7 120.5 142.9 142.9c-9.3 9.3-22.1 15-36.2 15h-375.5c-14.1 0-26.9-5.7-36.2-15l142.9-142.9 37.8 37.8c11.6 11.6 26.9 17.9 43.3 17.9s31.7-6.4 43.3-17.9zm157.9-40.4v147.2c0 10.5-3.2 20.3-8.6 28.4l-142.3-142.2 39.7-39.7c16.4 13.3 37.2 21.2 59.9 21.2 18.9 0 36.5-5.5 51.3-14.9zm-327.1 33.4-142.2 142.2c-5.4-8.1-8.6-17.9-8.6-28.5v-227.5c0-10.5 3.2-20.3 8.6-28.4zm208.5-46.4-84.1 84.2c-20 20-52.4 20-72.4 0l-187.8-187.8c9.3-9.3 22.1-15 36.2-15h295.1c-9.5 14.8-15 32.4-15 51.2 0 26.3 10.7 50.1 28 67.4z" fill="url(#_50_00000083066726120992294620000003649070026626262717_)"></path></g></svg></g></g><defs><clipPath id="SvgjsClipPath1056"><rect width="1000" height="1000" x="0" y="0" rx="350" ry="350"></rect></clipPath><clipPath id="SvgjsClipPath1035"><rect width="1000" height="1000" x="0" y="0" rx="500" ry="500"></rect></clipPath></defs></svg></g></g></svg>